<mxfile host="Electron" modified="2023-05-23T10:59:20.472Z" agent="Mozilla/5.0 (Macintosh; Intel Mac OS X 10_15_7) AppleWebKit/537.36 (KHTML, like Gecko) draw.io/21.2.8 Chrome/112.0.5615.165 Electron/24.2.0 Safari/537.36" etag="nRvKzbHSHulXmVpVtVob" version="21.2.8" type="device">
  <diagram name="Page-1" id="Z-_dABJUL8NAkmqb-osV">
    <mxGraphModel dx="1137" dy="1013" grid="1" gridSize="10" guides="1" tooltips="1" connect="1" arrows="1" fold="1" page="1" pageScale="1" pageWidth="1169" pageHeight="827" math="0" shadow="0">
      <root>
        <mxCell id="0" />
        <mxCell id="1" parent="0" />
        <mxCell id="A4QsqPPnz6yDz73bz2pM-5" style="edgeStyle=orthogonalEdgeStyle;rounded=0;orthogonalLoop=1;jettySize=auto;html=1;" edge="1" parent="1" source="A4QsqPPnz6yDz73bz2pM-1" target="A4QsqPPnz6yDz73bz2pM-2">
          <mxGeometry relative="1" as="geometry" />
        </mxCell>
        <mxCell id="A4QsqPPnz6yDz73bz2pM-1" value="data" style="shape=cylinder3;whiteSpace=wrap;html=1;boundedLbl=1;backgroundOutline=1;size=15;fontSize=14;" vertex="1" parent="1">
          <mxGeometry x="330" y="40" width="70" height="90" as="geometry" />
        </mxCell>
        <mxCell id="A4QsqPPnz6yDz73bz2pM-6" style="edgeStyle=orthogonalEdgeStyle;rounded=0;orthogonalLoop=1;jettySize=auto;html=1;entryX=0.5;entryY=0;entryDx=0;entryDy=0;entryPerimeter=0;" edge="1" parent="1" source="A4QsqPPnz6yDz73bz2pM-2" target="A4QsqPPnz6yDz73bz2pM-3">
          <mxGeometry relative="1" as="geometry" />
        </mxCell>
        <mxCell id="A4QsqPPnz6yDz73bz2pM-9" style="edgeStyle=orthogonalEdgeStyle;rounded=0;orthogonalLoop=1;jettySize=auto;html=1;entryX=1;entryY=0.5;entryDx=0;entryDy=0;fontSize=14;" edge="1" parent="1" source="A4QsqPPnz6yDz73bz2pM-2" target="A4QsqPPnz6yDz73bz2pM-4">
          <mxGeometry relative="1" as="geometry" />
        </mxCell>
        <mxCell id="A4QsqPPnz6yDz73bz2pM-10" value="2. verwijzing" style="edgeLabel;html=1;align=center;verticalAlign=middle;resizable=0;points=[];" vertex="1" connectable="0" parent="A4QsqPPnz6yDz73bz2pM-9">
          <mxGeometry x="-0.1724" relative="1" as="geometry">
            <mxPoint x="-25" y="-10" as="offset" />
          </mxGeometry>
        </mxCell>
        <mxCell id="A4QsqPPnz6yDz73bz2pM-2" value="Service provider" style="rounded=0;whiteSpace=wrap;html=1;fontSize=14;" vertex="1" parent="1">
          <mxGeometry x="305" y="190" width="120" height="60" as="geometry" />
        </mxCell>
        <mxCell id="A4QsqPPnz6yDz73bz2pM-3" value="gegevens set" style="shape=cylinder3;whiteSpace=wrap;html=1;boundedLbl=1;backgroundOutline=1;size=15;fontSize=14;" vertex="1" parent="1">
          <mxGeometry x="330" y="280" width="70" height="90" as="geometry" />
        </mxCell>
        <mxCell id="A4QsqPPnz6yDz73bz2pM-7" style="edgeStyle=orthogonalEdgeStyle;rounded=0;orthogonalLoop=1;jettySize=auto;html=1;curved=1;entryX=0.25;entryY=0;entryDx=0;entryDy=0;exitX=0.75;exitY=0;exitDx=0;exitDy=0;fontSize=14;" edge="1" parent="1" source="A4QsqPPnz6yDz73bz2pM-4" target="A4QsqPPnz6yDz73bz2pM-2">
          <mxGeometry relative="1" as="geometry">
            <Array as="points">
              <mxPoint x="130" y="150" />
              <mxPoint x="335" y="150" />
            </Array>
          </mxGeometry>
        </mxCell>
        <mxCell id="A4QsqPPnz6yDz73bz2pM-8" value="1. Zoek info" style="edgeLabel;html=1;align=center;verticalAlign=middle;resizable=0;points=[];" vertex="1" connectable="0" parent="A4QsqPPnz6yDz73bz2pM-7">
          <mxGeometry x="0.0596" y="-1" relative="1" as="geometry">
            <mxPoint x="-21" y="-11" as="offset" />
          </mxGeometry>
        </mxCell>
        <mxCell id="A4QsqPPnz6yDz73bz2pM-11" style="edgeStyle=orthogonalEdgeStyle;rounded=0;orthogonalLoop=1;jettySize=auto;html=1;entryX=0;entryY=0.5;entryDx=0;entryDy=0;entryPerimeter=0;curved=1;exitX=0.75;exitY=1;exitDx=0;exitDy=0;startArrow=classic;startFill=1;fontSize=14;" edge="1" parent="1" source="A4QsqPPnz6yDz73bz2pM-4" target="A4QsqPPnz6yDz73bz2pM-3">
          <mxGeometry relative="1" as="geometry" />
        </mxCell>
        <mxCell id="A4QsqPPnz6yDz73bz2pM-12" value="3. Download &lt;br&gt;gegevens set" style="edgeLabel;html=1;align=center;verticalAlign=middle;resizable=0;points=[];" vertex="1" connectable="0" parent="A4QsqPPnz6yDz73bz2pM-11">
          <mxGeometry x="0.082" y="23" relative="1" as="geometry">
            <mxPoint x="16" y="-12" as="offset" />
          </mxGeometry>
        </mxCell>
        <mxCell id="A4QsqPPnz6yDz73bz2pM-4" value="Service provider" style="rounded=0;whiteSpace=wrap;html=1;fontSize=14;" vertex="1" parent="1">
          <mxGeometry x="40" y="190" width="120" height="60" as="geometry" />
        </mxCell>
      </root>
    </mxGraphModel>
  </diagram>
</mxfile>
